<svg width="205" height="28" viewBox="0 0 205 28" fill="none" xmlns="http://www.w3.org/2000/svg">
    <mask id="mask0_1_910" style="mask-type:alpha" maskUnits="userSpaceOnUse" x="0" y="0"
        width="205" height="28">
        <rect width="204.4" height="28" fill="#C4C4C4" />
    </mask>
    <g mask="url(#mask0_1_910)">
        <path
            d="M5.3933 3.60014V23.2002H7.62955V10.1773L8.28727 10.572L15.2591 23.2002H16.8376V3.60014H14.6014V16.2284L7.89264 3.99477C7.71725 3.64399 7.49801 3.51244 7.23492 3.60014C7.05953 3.60014 6.79644 3.60014 6.44566 3.60014H5.3933ZM1.31544 -107.423V-1.66162H2.1047V-107.423H1.31544ZM3.81478 -107.423V-1.66162H4.60404V-107.423H3.81478ZM6.5772 -107.423V-1.66162H10.2604V-107.423H6.5772ZM11.9705 -107.423V-1.66162H12.7598V-107.423H11.9705ZM16.8376 -107.423V-1.66162H20.5209V-107.423H16.8376ZM21.4406 21.227L23.0192 22.8056H31.3064L32.885 21.227V5.31021L31.3064 3.60014H23.0192L21.4406 5.31021V21.227ZM23.94 19.517V6.88874L24.7292 6.09948H29.5964L30.3856 6.88874V19.517L29.5964 20.3062H24.7292L23.94 19.517ZM17.3628 -107.423V-1.66162H21.046V-107.423H17.3628ZM22.6245 -107.423V-1.66162H23.5453V-107.423H22.6245ZM25.1239 -107.423V-1.66162H28.8071V-107.423H25.1239ZM30.3856 -107.423V-1.66162H31.3064V-107.423H30.3856ZM35.7789 -107.423V-1.66162H36.5682V-107.423H35.7789ZM36.6987 3.60014V22.8056H38.935V15.176C39.1104 15.176 39.5927 15.0883 40.382 14.9129C41.2589 14.6498 41.7851 14.5621 41.9605 14.6498C42.1359 14.7375 42.399 15.0006 42.7497 15.4391C43.1882 15.7899 43.4952 16.053 43.6706 16.2284L46.8276 22.8056H49.4585C49.4585 21.3147 48.8885 19.8239 47.7484 18.3331C46.6961 16.7545 45.7314 15.3953 44.8544 14.2552C45.556 13.2905 46.2576 12.5451 46.9592 12.019C47.7484 11.4928 48.143 10.4843 48.143 8.99344C48.143 8.64266 48.0992 8.20418 48.0115 7.678C47.9238 7.06413 47.7484 6.45026 47.4853 5.83639C47.2222 5.22252 46.9153 4.69634 46.5645 4.25786C46.2137 3.81938 45.7753 3.60014 45.2491 3.60014H36.6987ZM39.0665 6.09948H44.8544C45.1175 6.09948 45.2929 6.27487 45.3806 6.62565C45.556 6.88874 45.6437 7.23952 45.6437 7.678C45.7314 8.02879 45.7753 8.37957 45.7753 8.73036C45.7753 9.08114 45.7753 9.25653 45.7753 9.25653C45.7753 9.43192 45.7314 9.69501 45.6437 10.0458C45.6437 10.3966 45.6437 10.572 45.6437 10.572L44.4598 11.7559H39.0665V6.09948ZM33.4101 -107.423V-1.66162H37.0934V-107.423H33.4101ZM38.6719 -107.423V-1.66162H39.5927V-107.423H38.6719ZM41.1712 -107.423V-1.66162H41.9605V-107.423H41.1712ZM43.6706 -107.423V-1.66162H47.3538V-107.423H43.6706ZM51.8263 -107.423V-1.66162H52.6155V-107.423H51.8263ZM58.2709 5.83639V22.8056H60.6387V5.83639H65.3743V3.60014H53.5353V5.83639H58.2709ZM49.4575 -107.423V-1.66162H50.2467V-107.423H49.4575ZM51.9568 -107.423V-1.66162H52.7461V-107.423H51.9568ZM54.7192 -107.423V-1.66162H58.4025V-107.423H54.7192ZM59.7179 -107.423V-1.66162H63.4011V-107.423H59.7179ZM67.8736 -107.423V-1.66162H68.6629V-107.423H67.8736ZM68.7934 3.60014V23.2002H71.0296V14.2552H78.0015V23.2002H80.2377V3.60014H78.0015V11.3612H71.0296V3.60014H68.7934ZM65.5048 -107.423V-1.66162H69.188V-107.423H65.5048ZM70.7666 -107.423V-1.66162H71.6874V-107.423H70.7666ZM73.2659 -107.423V-1.66162H74.0552V-107.423H73.2659ZM78.5277 -107.423V-1.66162H82.2109V-107.423H78.5277ZM83.921 -107.423V-1.66162H84.7102V-107.423H83.921ZM81.5521 -106.634V-1.53008H82.3414V-106.634H81.5521ZM86.8139 -106.634V-1.53008H87.6032V-106.634H86.8139ZM90.8918 -106.634V-1.53008H91.681V-106.634H90.8918ZM94.575 -106.634V-1.53008H95.3643V-106.634H94.575ZM96.282 21.227L97.8605 22.8056H106.148L107.726 21.227V5.31021L106.148 3.60014H97.8605L96.282 5.31021V21.227ZM98.7813 19.517V6.88874L99.5706 6.09948H104.438L105.227 6.88874V19.517L104.438 20.3062H99.5706L98.7813 19.517ZM92.2041 -107.423V-1.66162H95.8874V-107.423H92.2041ZM97.4659 -107.423V-1.66162H98.3867V-107.423H97.4659ZM99.9652 -107.423V-1.66162H103.648V-107.423H99.9652ZM105.227 -107.423V-1.66162H106.148V-107.423H105.227ZM110.62 -107.423V-1.66162H111.41V-107.423H110.62ZM112.329 3.60014V22.8056H114.566V13.2029H122.59V10.7035H114.829V5.83639H123.379V3.60014H112.329ZM108.251 -107.423V-1.66162H109.041V-107.423H108.251ZM110.751 -107.423V-1.66162H114.434V-107.423H110.751ZM116.013 -107.423V-1.66162H119.696V-107.423H116.013ZM124.168 -107.423V-1.66162H124.958V-107.423H124.168ZM126.668 -107.423V-1.66162H127.457V-107.423H126.668ZM124.299 -106.634V-1.53008H125.088V-106.634H124.299ZM129.561 -106.634V-1.53008H130.35V-106.634H129.561ZM133.638 -106.634V-1.53008H134.428V-106.634H133.638ZM137.322 -106.634V-1.53008H138.111V-106.634H137.322ZM134.951 -107.423V-1.66162H135.74V-107.423H134.951ZM140.213 -107.423V-1.66162H143.896V-107.423H140.213ZM145.211 -107.423V-1.66162H148.894V-107.423H145.211ZM150.868 -107.423V-1.66162H151.657V-107.423H150.868ZM153.367 -107.423V-1.66162H154.156V-107.423H153.367ZM147.184 5.83639L138.766 20.7009V23.2002H150.078V20.9639H141.923L150.078 6.09948V3.60014H138.634V5.83639H147.184ZM154.681 3.60014V22.8056H166.126V20.5693H157.181V13.2029H164.942V10.7035H157.181V5.83639H165.731V3.60014H154.681ZM150.998 -107.423V-1.66162H154.681V-107.423H150.998ZM156.26 -107.423V-1.66162H157.181V-107.423H156.26ZM158.759 -107.423V-1.66162H162.442V-107.423H158.759ZM166.915 -107.423V-1.66162H167.704V-107.423H166.915ZM169.414 -107.423V-1.66162H170.204V-107.423H169.414ZM170.334 3.60014V22.8056H172.57V15.176C172.746 15.176 173.228 15.0883 174.017 14.9129C174.894 14.6498 175.42 14.5621 175.596 14.6498C175.771 14.7375 176.034 15.0006 176.385 15.4391C176.824 15.7899 177.131 16.053 177.306 16.2284L180.463 22.8056H183.094C183.094 21.3147 182.524 19.8239 181.384 18.3331C180.331 16.7545 179.367 15.3953 178.49 14.2552C179.191 13.2905 179.893 12.5451 180.594 12.019C181.384 11.4928 181.778 10.4843 181.778 8.99344C181.778 8.64266 181.735 8.20418 181.647 7.678C181.559 7.06413 181.384 6.45026 181.121 5.83639C180.858 5.22252 180.551 4.69634 180.2 4.25786C179.849 3.81938 179.411 3.60014 178.884 3.60014H170.334ZM172.702 6.09948H178.49C178.753 6.09948 178.928 6.27487 179.016 6.62565C179.191 6.88874 179.279 7.23952 179.279 7.678C179.367 8.02879 179.411 8.37957 179.411 8.73036C179.411 9.08114 179.411 9.25653 179.411 9.25653C179.411 9.43192 179.367 9.69501 179.279 10.0458C179.279 10.3966 179.279 10.572 179.279 10.572L178.095 11.7559H172.702V6.09948ZM167.045 -107.423V-1.66162H170.729V-107.423H167.045ZM172.307 -107.423V-1.66162H173.228V-107.423H172.307ZM174.807 -107.423V-1.66162H175.596V-107.423H174.807ZM177.306 -107.423V-1.66162H180.989V-107.423H177.306ZM185.462 -107.423V-1.66162H186.251V-107.423H185.462ZM187.171 21.227L188.749 22.8056H197.036L198.615 21.227V5.31021L197.036 3.60014H188.749L187.171 5.31021V21.227ZM189.67 19.517V6.88874L190.459 6.09948H195.326L196.116 6.88874V19.517L195.326 20.3062H190.459L189.67 19.517ZM183.093 -107.423V-1.66162H186.776V-107.423H183.093ZM188.355 -107.423V-1.66162H189.275V-107.423H188.355ZM190.854 -107.423V-1.66162H194.537V-107.423H190.854ZM196.116 -107.423V-1.66162H197.036V-107.423H196.116ZM201.509 -107.423V-1.66162H202.298V-107.423H201.509Z"
            fill="white" />
    </g>
</svg>